<svg width="24" height="24" viewBox="0 0 24 24" fill="none" xmlns="http://www.w3.org/2000/svg">
<rect width="24" height="24" rx="12" fill="#8830C2" fill-opacity="0.08"/>
<path d="M19 9.08732L18.2092 7.15948C18.0748 6.84045 17.8344 6.61029 17.4881 6.46901C17.1418 6.32772 16.7877 6.31177 16.4259 6.42115L14.9527 6.8997C14.9527 6.89058 14.9553 6.88374 14.9605 6.87919C14.9656 6.87463 14.9682 6.86779 14.9682 6.85868C15.0096 6.55788 14.9656 6.27303 14.8364 6.00414C14.7072 5.73524 14.4978 5.50964 14.2084 5.32734C13.9396 5.15415 13.6424 5.04933 13.3167 5.01287C12.9911 4.97641 12.6732 5.01743 12.3631 5.13592C12.0633 5.2453 11.8126 5.41393 11.611 5.64181C11.4094 5.86969 11.2828 6.12947 11.2311 6.42115L11.014 7.61067L9.94401 6.76297C9.68556 6.57155 9.3961 6.44394 9.07562 6.38013C8.75515 6.31633 8.43984 6.33 8.12971 6.42115C7.42673 6.61257 6.99771 7.02503 6.84264 7.65853C6.68757 8.29203 6.88399 8.82298 7.4319 9.25139C7.44224 9.26051 7.45258 9.26734 7.46291 9.2719C7.47325 9.27646 7.48359 9.2833 7.49393 9.29241L5.92774 9.7983C5.56591 9.90768 5.30229 10.1173 5.13689 10.4272C4.97148 10.7372 4.95597 11.0516 5.09037 11.3707L5.89672 13.2985L6.87365 12.984V17.7695C6.87365 18.1067 7.01063 18.3961 7.28458 18.6377C7.55854 18.8792 7.88677 19 8.26927 19C8.30028 19 8.79133 19 9.74242 19C10.6832 19 11.7221 19 12.8593 19C13.9965 19 15.0509 19 16.0227 19C16.9841 19 17.501 19 17.5734 19C17.9559 19 18.2841 18.8792 18.5581 18.6377C18.832 18.3961 18.969 18.1067 18.969 17.7695V11.5621C18.8966 11.5621 18.4573 11.5621 17.6509 11.5621C16.8342 11.5621 15.9555 11.5621 15.0147 11.5621C14.074 11.5621 13.2211 11.5621 12.4561 11.5621C11.6808 11.5621 11.2931 11.5621 11.2931 11.5621L19 9.08732ZM16.736 7.20049C16.8601 7.16403 16.9789 7.16859 17.0927 7.21417C17.2064 7.25974 17.2891 7.33722 17.3408 7.4466L17.806 8.59511L13.433 10.0034L12.7973 8.45838L16.736 7.20049ZM12.146 6.54421C12.177 6.39836 12.2416 6.2662 12.3398 6.1477C12.438 6.0292 12.5647 5.94261 12.7197 5.88792C12.8748 5.83323 13.035 5.81272 13.2004 5.82639C13.3658 5.84006 13.5209 5.89248 13.6656 5.98363C13.9758 6.18416 14.1024 6.43938 14.0456 6.7493C13.9887 7.05921 13.7794 7.27341 13.4175 7.39191C13.3555 7.41014 13.1901 7.46255 12.9213 7.54915C12.6525 7.63574 12.5078 7.68359 12.4871 7.69271L11.9134 7.87045L12.146 6.54421ZM11.9289 8.7455L12.5647 10.2768C12.4096 10.3315 12.2623 10.3817 12.1227 10.4272C11.9832 10.4728 11.841 10.5184 11.6963 10.564L11.0605 9.01896L11.9289 8.7455ZM8.40883 7.20049C8.5639 7.15492 8.72155 7.14808 8.88179 7.17998C9.04203 7.21189 9.18934 7.27797 9.32373 7.37824L10.5333 8.32165C10.3575 8.37634 10.1017 8.4561 9.76568 8.56092C9.4297 8.66575 9.179 8.7455 9.0136 8.80019C8.84819 8.85489 8.6802 8.86856 8.50962 8.84121C8.33905 8.81387 8.18657 8.7455 8.05217 8.63612C7.77305 8.41736 7.67484 8.14847 7.75754 7.82944C7.84025 7.51041 8.05734 7.30076 8.40883 7.20049ZM6.43946 12.2457L5.97426 11.0835C5.92257 10.9833 5.92515 10.8807 5.98201 10.7759C6.03887 10.6711 6.12933 10.6004 6.25338 10.564L10.1766 9.30608L10.8124 10.8374L6.43946 12.2457ZM14.3169 12.3824H18.0386V17.7695C18.0386 17.8788 17.9921 17.9746 17.899 18.0566C17.806 18.1386 17.6974 18.1796 17.5734 18.1796H14.3169V12.3824ZM12.4561 12.3824H13.3865V18.1796H12.4561V12.3824ZM11.5257 12.3824V18.1796H8.26927C8.14521 18.1796 8.03667 18.1386 7.94363 18.0566C7.85058 17.9746 7.80406 17.8788 7.80406 17.7695V12.6832L8.73447 12.3824H11.5257Z" fill="#8830C2"/>
</svg>
