<svg width="24" height="24" viewBox="0 0 24 24" fill="none" xmlns="http://www.w3.org/2000/svg">
<rect width="24" height="24" rx="12" fill="#8830C2" fill-opacity="0.08"/>
<path d="M10.2231 16.3887L12 15.0352L13.7769 16.3887L14.5308 15.8145L12.7538 14.4609C13.0291 14.2422 13.2415 13.9915 13.391 13.709C13.5406 13.4264 13.6154 13.1302 13.6154 12.8203C13.6154 12.4831 13.4568 12.1937 13.1397 11.9521C12.8226 11.7106 12.4427 11.5898 12 11.5898C11.5573 11.5898 11.1774 11.7106 10.8603 11.9521C10.5432 12.1937 10.3846 12.4831 10.3846 12.8203C10.3846 13.1302 10.4594 13.4264 10.609 13.709C10.7585 13.9915 10.9709 14.2422 11.2462 14.4609L9.46923 15.8145L10.2231 16.3887ZM12 12.4102C12.1436 12.4102 12.2692 12.4512 12.3769 12.5332C12.4846 12.6152 12.5385 12.7109 12.5385 12.8203C12.5385 13.0208 12.4936 13.2122 12.4038 13.3945C12.3141 13.5768 12.1795 13.7363 12 13.873C11.8205 13.7363 11.6859 13.5768 11.5962 13.3945C11.5064 13.2122 11.4615 13.0208 11.4615 12.8203C11.4615 12.7109 11.5154 12.6152 11.6231 12.5332C11.7308 12.4512 11.8564 12.4102 12 12.4102ZM7.69231 19H16.3077C17.0496 19 17.6838 18.7949 18.2103 18.3848C18.7368 17.9746 19 17.487 19 16.9219V15.8828C19 15.3633 18.9342 14.8551 18.8026 14.3584C18.6709 13.8617 18.4795 13.3763 18.2282 12.9023C17.965 12.4193 17.6479 11.9681 17.2769 11.5488C16.906 11.1296 16.4812 10.7376 16.0026 10.373L13.7769 8.66406L16.2359 5.82031H15.2308C14.7043 5.82031 14.1987 5.77702 13.7141 5.69043C13.2295 5.60384 12.7897 5.47396 12.3949 5.30078C12.1556 5.20052 11.9132 5.12533 11.6679 5.0752C11.4226 5.02507 11.1744 5 10.9231 5C10.5043 5 10.1034 5.05925 9.72051 5.17773C9.33761 5.29622 8.99658 5.4694 8.69744 5.69727L8.06923 6.17578L10.2231 8.66406L7.99744 10.373C7.53077 10.7285 7.11197 11.1159 6.74103 11.5352C6.37009 11.9544 6.05598 12.3965 5.79872 12.8613C5.54145 13.3262 5.34103 13.8138 5.19744 14.3242C5.06581 14.8255 5 15.3451 5 15.8828V16.9219C5 17.487 5.26325 17.9746 5.78974 18.3848C6.31624 18.7949 6.95043 19 7.69231 19ZM9.46923 6.28516C9.66068 6.13021 9.88205 6.014 10.1333 5.93652C10.3846 5.85905 10.6479 5.82031 10.9231 5.82031C11.0786 5.82031 11.2372 5.83626 11.3987 5.86816C11.5603 5.90007 11.7188 5.95247 11.8744 6.02539C12.2214 6.17122 12.5983 6.29199 13.0051 6.3877C13.412 6.4834 13.8308 6.55404 14.2615 6.59961L12.7897 8.30859H11.2103L9.46923 6.28516ZM6.07692 15.8828C6.07692 15.418 6.13675 14.9577 6.25641 14.502C6.37607 14.0553 6.54957 13.6247 6.77692 13.21C7.00427 12.7952 7.27949 12.3965 7.60256 12.0137C7.93761 11.6309 8.32051 11.2754 8.75128 10.9473L11.1385 9.12891H12.8615L15.2487 10.9473C15.6795 11.2754 16.0624 11.6309 16.3974 12.0137C16.7205 12.3965 16.9957 12.7952 17.2231 13.21C17.4504 13.6247 17.6239 14.0553 17.7436 14.502C17.8632 14.9577 17.9231 15.418 17.9231 15.8828V16.9219C17.9231 17.2591 17.7645 17.5531 17.4474 17.8037C17.1303 18.0544 16.7504 18.1797 16.3077 18.1797H7.69231C7.24957 18.1797 6.86966 18.0544 6.55256 17.8037C6.23547 17.5531 6.07692 17.2591 6.07692 16.9219V15.8828Z" fill="#8830C2"/>
</svg>
