<svg width="24" height="24" viewBox="0 0 24 24" fill="none" xmlns="http://www.w3.org/2000/svg">
<rect width="24" height="24" rx="12" fill="#8830C2" fill-opacity="0.08"/>
<path d="M18.9864 18.5762C18.9773 18.0202 18.8363 17.4915 18.5634 16.9902C18.2904 16.4889 17.9175 16.0355 17.4444 15.6299C16.9714 15.2243 16.4074 14.8757 15.7524 14.584C15.1066 14.2923 14.397 14.0827 13.6238 13.9551V12.834C13.8239 12.6335 13.9968 12.3942 14.1423 12.1162C14.2878 11.8382 14.4107 11.5716 14.5107 11.3164C14.6472 11.2526 14.7723 11.1455 14.886 10.9951C14.9997 10.8447 15.0929 10.6693 15.1657 10.4688C15.2567 10.1862 15.2862 9.92415 15.2544 9.68262C15.2225 9.44108 15.1339 9.25651 14.9883 9.12891C14.9974 9.02865 15.0042 8.92838 15.0088 8.82812C15.0133 8.72786 15.011 8.6276 15.002 8.52734C14.9656 8.25391 14.9701 8.03288 15.0156 7.86426C15.0611 7.69564 15.1111 7.54297 15.1657 7.40625C15.2112 7.28776 15.2498 7.16471 15.2817 7.03711C15.3135 6.9095 15.3021 6.77279 15.2476 6.62695C15.0656 6.09831 14.7199 5.69499 14.2105 5.41699C13.7011 5.139 13.0552 5 12.2729 5H12.0546C11.5179 5.01823 11.1404 5.12305 10.922 5.31445C10.7037 5.50586 10.5445 5.70638 10.4444 5.91602C10.4263 5.94336 10.4103 5.9707 10.3967 5.99805C10.383 6.02539 10.3762 6.04362 10.3762 6.05273C9.67576 6.10742 9.26868 6.37402 9.15497 6.85254C9.04126 7.33105 8.98441 7.80729 8.98441 8.28125L8.99805 8.58203C8.99805 8.66406 8.99805 8.74837 8.99805 8.83496C8.99805 8.92155 9.0026 9.01042 9.0117 9.10156C8.83886 9.22917 8.73879 9.42513 8.7115 9.68945C8.68421 9.95378 8.73424 10.2363 8.8616 10.5371C8.94347 10.7103 9.03671 10.8584 9.14133 10.9814C9.24594 11.1045 9.36192 11.2025 9.48928 11.2754C9.58934 11.5488 9.71897 11.8359 9.87817 12.1367C10.0374 12.4375 10.2307 12.6882 10.4581 12.8887V13.9414C9.67576 14.069 8.95257 14.2741 8.2885 14.5566C7.63353 14.8483 7.06498 15.1992 6.58285 15.6094C6.10071 16.0195 5.7232 16.4753 5.45029 16.9766C5.16829 17.487 5.02274 18.0202 5.01365 18.5762L5 19H19L18.9864 18.5762ZM5.87329 18.1797C5.95517 17.7422 6.1371 17.332 6.4191 16.9492C6.7102 16.5664 7.07635 16.2223 7.51754 15.917C7.95874 15.6117 8.46589 15.3542 9.03899 15.1445C9.62118 14.9349 10.2443 14.7936 10.9084 14.7207L11.2768 14.666V12.4785L11.0994 12.3555C10.9357 12.237 10.7765 12.0456 10.6218 11.7812C10.4672 11.5169 10.3262 11.1979 10.1988 10.8242L10.1306 10.5918L9.88499 10.5508C9.8668 10.5417 9.83041 10.5098 9.77583 10.4551C9.72125 10.4004 9.67122 10.3184 9.62573 10.209C9.58934 10.1361 9.56433 10.07 9.55068 10.0107C9.53704 9.9515 9.53021 9.90365 9.53021 9.86719L9.95322 9.97656L9.87135 9.36133C9.85315 9.22461 9.83951 9.09017 9.83041 8.95801C9.82131 8.82585 9.81676 8.70052 9.81676 8.58203V8.26758C9.80767 7.71159 9.83723 7.34473 9.90546 7.16699C9.97368 6.98926 10.1533 6.89128 10.4444 6.87305C10.6719 6.8457 10.8356 6.76823 10.9357 6.64062C11.0357 6.51302 11.1131 6.39909 11.1676 6.29883C11.2313 6.18034 11.3155 6.07552 11.4201 5.98438C11.5247 5.89323 11.7498 5.83854 12.0955 5.82031H12.2729C12.6186 5.82031 13.0302 5.88184 13.5078 6.00488C13.9854 6.12793 14.306 6.41732 14.4698 6.87305C14.4698 6.89128 14.4607 6.92546 14.4425 6.97559C14.4243 7.02572 14.4107 7.06901 14.4016 7.10547C14.3379 7.26042 14.2742 7.45866 14.2105 7.7002C14.1468 7.94173 14.1378 8.25391 14.1832 8.63672C14.1923 8.70963 14.1923 8.79395 14.1832 8.88965C14.1741 8.98535 14.165 9.08333 14.1559 9.18359L14.0741 9.85352L14.4425 9.8125C14.4425 9.85807 14.4402 9.91276 14.4357 9.97656C14.4311 10.0404 14.4152 10.1133 14.3879 10.1953C14.3424 10.3138 14.2969 10.4049 14.2515 10.4688C14.206 10.5326 14.1832 10.569 14.1832 10.5781H13.8967L13.8012 10.8516C13.6829 11.207 13.551 11.5124 13.4055 11.7676C13.2599 12.0228 13.1144 12.2051 12.9688 12.3145L12.8051 12.4375V14.6797L13.1598 14.7207C13.8239 14.8027 14.4379 14.9486 15.002 15.1582C15.575 15.3678 16.0776 15.6253 16.5097 15.9307C16.9418 16.236 17.2989 16.5801 17.5809 16.9629C17.8629 17.3457 18.0448 17.7513 18.1267 18.1797H5.87329Z" fill="#8830C2"/>
</svg>
