<svg width="24" height="24" viewBox="0 0 24 24" fill="none" xmlns="http://www.w3.org/2000/svg">
<path opacity="0.5" d="M10.0598 1.97118C10.6705 0.0917077 13.3295 0.0917091 13.9402 1.97118L15.3587 6.33711C15.6318 7.17763 16.4151 7.74671 17.2989 7.74671H21.8895C23.8657 7.74671 24.6873 10.2755 23.0886 11.4371L19.3747 14.1354C18.6597 14.6549 18.3605 15.5757 18.6336 16.4162L20.0522 20.7821C20.6629 22.6616 18.5117 24.2245 16.913 23.0629L13.1991 20.3646C12.4841 19.8451 11.5159 19.8451 10.8009 20.3646L7.08704 23.0629C5.48827 24.2245 3.33713 22.6616 3.94781 20.7821L5.36638 16.4162C5.63948 15.5757 5.3403 14.6549 4.62531 14.1354L0.911429 11.4371C-0.687346 10.2755 0.134316 7.74671 2.11051 7.74671H6.70112C7.5849 7.74671 8.36817 7.17763 8.64127 6.33711L10.0598 1.97118Z" fill="#8830C2"/>
</svg>
