<svg width="32" height="32" viewBox="0 0 32 32" fill="none" xmlns="http://www.w3.org/2000/svg">
<rect width="32" height="32" rx="16" fill="white"/>
<g clip-path="url(#clip0_534_1590)">
<path d="M20 12.5V21.5C20 21.6326 19.9473 21.7598 19.8536 21.8536C19.7598 21.9473 19.6326 22 19.5 22H10.5C10.3674 22 10.2402 21.9473 10.1464 21.8536C10.0527 21.7598 10 21.6326 10 21.5V12.5C10 12.3674 10.0527 12.2402 10.1464 12.1464C10.2402 12.0527 10.3674 12 10.5 12H19.5C19.6326 12 19.7598 12.0527 19.8536 12.1464C19.9473 12.2402 20 12.3674 20 12.5ZM21.5 10H12.5C12.3674 10 12.2402 10.0527 12.1464 10.1464C12.0527 10.2402 12 10.3674 12 10.5C12 10.6326 12.0527 10.7598 12.1464 10.8536C12.2402 10.9473 12.3674 11 12.5 11H21V19.5C21 19.6326 21.0527 19.7598 21.1464 19.8536C21.2402 19.9473 21.3674 20 21.5 20C21.6326 20 21.7598 19.9473 21.8536 19.8536C21.9473 19.7598 22 19.6326 22 19.5V10.5C22 10.3674 21.9473 10.2402 21.8536 10.1464C21.7598 10.0527 21.6326 10 21.5 10Z" fill="#2E4049"/>
</g>
<defs>
<clipPath id="clip0_534_1590">
<rect width="16" height="16" fill="white" transform="translate(8 8)"/>
</clipPath>
</defs>
</svg>
